<?xml version="1.0" encoding="UTF-8"?>
<svg xmlns="http://www.w3.org/2000/svg" xmlns:xlink="http://www.w3.org/1999/xlink" width="100px" height="100px" viewBox="0 0 100 88" version="1.1">
<g id="surface1">
<path style=" stroke:none;fill-rule:nonzero;fill:rgb(0%,0%,0%);fill-opacity:1;" d="M 71.996094 46.183594 C 71.960938 39.875 74.84375 35.113281 80.675781 31.609375 C 77.414062 26.984375 72.484375 24.441406 65.972656 23.941406 C 59.808594 23.460938 53.074219 27.5 50.609375 27.5 C 48.003906 27.5 42.03125 24.113281 37.34375 24.113281 C 27.65625 24.269531 17.359375 31.761719 17.359375 47.007812 C 17.359375 51.511719 18.195312 56.164062 19.859375 60.964844 C 22.082031 67.273438 30.105469 82.742188 38.472656 82.484375 C 42.847656 82.378906 45.9375 79.40625 51.632812 79.40625 C 57.152344 79.40625 60.015625 82.484375 64.894531 82.484375 C 73.332031 82.363281 80.589844 68.304688 82.707031 61.976562 C 71.386719 56.703125 71.996094 46.507812 71.996094 46.183594 Z M 62.171875 17.960938 C 66.910156 12.390625 66.476562 7.320312 66.335938 5.5 C 62.152344 5.742188 57.308594 8.320312 54.546875 11.5 C 51.511719 14.902344 49.722656 19.113281 50.105469 23.855469 C 54.636719 24.199219 58.765625 21.898438 62.171875 17.960938 Z M 62.171875 17.960938 "/>
</g>
</svg>
