<?xml version="1.0" encoding="UTF-8"?>
<svg xmlns="http://www.w3.org/2000/svg" xmlns:xlink="http://www.w3.org/1999/xlink" width="100px" height="100px" viewBox="0 0 100 88" version="1.1">
<g id="surface1">
<path style=" stroke:none;fill-rule:nonzero;fill:rgb(0%,0%,0%);fill-opacity:1;" d="M 35.746094 68.304688 C 35.746094 68.648438 35.347656 68.921875 34.84375 68.921875 C 34.269531 68.972656 33.871094 68.699219 33.871094 68.304688 C 33.871094 67.960938 34.269531 67.683594 34.773438 67.683594 C 35.296875 67.632812 35.746094 67.90625 35.746094 68.304688 Z M 30.347656 67.53125 C 30.226562 67.875 30.574219 68.269531 31.09375 68.371094 C 31.542969 68.542969 32.066406 68.371094 32.171875 68.027344 C 32.273438 67.683594 31.945312 67.289062 31.421875 67.132812 C 30.972656 67.015625 30.46875 67.1875 30.347656 67.53125 Z M 38.019531 67.238281 C 37.515625 67.359375 37.171875 67.683594 37.222656 68.078125 C 37.273438 68.421875 37.726562 68.648438 38.246094 68.527344 C 38.75 68.40625 39.097656 68.078125 39.046875 67.734375 C 38.992188 67.410156 38.523438 67.1875 38.019531 67.238281 Z M 49.445312 1.375 C 25.363281 1.375 6.945312 19.472656 6.945312 43.3125 C 6.945312 62.375 19.0625 78.683594 36.371094 84.425781 C 38.59375 84.820312 39.375 83.460938 39.375 82.34375 C 39.375 81.28125 39.324219 75.402344 39.324219 71.792969 C 39.324219 71.792969 27.171875 74.371094 24.617188 66.671875 C 24.617188 66.671875 22.640625 61.667969 19.792969 60.378906 C 19.792969 60.378906 15.816406 57.679688 20.070312 57.734375 C 20.070312 57.734375 24.390625 58.078125 26.769531 62.167969 C 30.574219 68.800781 36.945312 66.894531 39.425781 65.757812 C 39.828125 63.007812 40.953125 61.101562 42.203125 59.96875 C 32.5 58.902344 22.707031 57.507812 22.707031 40.976562 C 22.707031 36.25 24.027344 33.875 26.804688 30.851562 C 26.355469 29.734375 24.878906 25.128906 27.257812 19.179688 C 30.886719 18.0625 39.234375 23.820312 39.234375 23.820312 C 42.707031 22.859375 46.441406 22.359375 50.140625 22.359375 C 53.835938 22.359375 57.570312 22.859375 61.042969 23.820312 C 61.042969 23.820312 69.390625 18.046875 73.019531 19.179688 C 75.398438 25.144531 73.925781 29.734375 73.472656 30.851562 C 76.25 33.894531 77.953125 36.265625 77.953125 40.976562 C 77.953125 57.5625 67.726562 58.882812 58.019531 59.96875 C 59.617188 61.324219 60.972656 63.902344 60.972656 67.941406 C 60.972656 73.734375 60.921875 80.902344 60.921875 82.3125 C 60.921875 83.429688 61.71875 84.785156 63.921875 84.390625 C 81.285156 78.683594 93.054688 62.375 93.054688 43.3125 C 93.054688 19.472656 73.523438 1.375 49.445312 1.375 Z M 23.820312 60.65625 C 23.59375 60.828125 23.644531 61.222656 23.941406 61.546875 C 24.21875 61.824219 24.617188 61.945312 24.84375 61.71875 C 25.070312 61.546875 25.015625 61.152344 24.722656 60.828125 C 24.445312 60.550781 24.046875 60.429688 23.820312 60.65625 Z M 21.945312 59.261719 C 21.824219 59.484375 21.996094 59.761719 22.34375 59.933594 C 22.621094 60.105469 22.96875 60.054688 23.089844 59.8125 C 23.210938 59.589844 23.039062 59.3125 22.691406 59.140625 C 22.34375 59.039062 22.066406 59.089844 21.945312 59.261719 Z M 27.570312 65.382812 C 27.292969 65.605469 27.394531 66.121094 27.796875 66.445312 C 28.195312 66.84375 28.699219 66.894531 28.921875 66.617188 C 29.148438 66.394531 29.046875 65.878906 28.699219 65.554688 C 28.316406 65.15625 27.796875 65.105469 27.570312 65.382812 Z M 25.589844 62.855469 C 25.3125 63.027344 25.3125 63.472656 25.589844 63.867188 C 25.867188 64.265625 26.335938 64.4375 26.5625 64.265625 C 26.839844 64.039062 26.839844 63.59375 26.5625 63.199219 C 26.320312 62.804688 25.867188 62.632812 25.589844 62.855469 Z M 25.589844 62.855469 "/>
</g>
</svg>
